<svg width="64" height="64" viewBox="0 0 64 64" fill="#ffffff" xmlns="http://www.w3.org/2000/svg">
<path d="M50.1807 17.358C48.2871 14.202 44.8155 12.624 41.0283 12.624H22.0923C18.3051 12.624 14.8335 14.202 12.9399 17.358C5.68114 28.404 4.10314 45.1308 9.15274 48.6024C14.2023 52.074 25.5639 36.9252 31.5603 36.9252C37.5567 36.9252 48.6027 52.074 53.9679 48.6024C59.0175 45.1308 57.4395 28.404 50.1807 17.358ZM25.2483 28.404H22.0923V31.56H18.9363V28.404H15.7803V25.248H18.9363V22.092H22.0923V25.248H25.2483V28.404ZM42.2907 29.982C42.2907 31.56 41.0283 32.8224 39.4503 32.8224C37.8723 32.8224 36.6099 31.56 36.6099 29.982C36.6099 28.404 37.8723 27.1416 39.4503 27.1416C41.0283 27.1416 42.2907 28.404 42.2907 29.982ZM48.2871 23.67C48.2871 25.248 47.0247 26.5104 45.4467 26.5104C43.8687 26.5104 42.6063 25.248 42.6063 23.67C42.6063 22.092 43.8687 20.8296 45.4467 20.8296C47.0247 20.8296 48.2871 22.092 48.2871 23.67Z" fill="#ffffff"/>
</svg>
