<svg width="64" height="64" viewBox="0 0 64 64" fill="#ffffff" xmlns="http://www.w3.org/2000/svg">
<path d="M33.5325 47.3398H41.4225V55.2298H33.5325V47.3398Z" fill="#ffffff"/>
<path d="M47.3401 47.3398H55.2301V55.2298H47.3401V47.3398Z" fill="#ffffff"/>
<path d="M33.5325 33.5322H41.4225V41.4222H33.5325V33.5322Z" fill="#ffffff"/>
<path d="M47.3401 33.5322H55.2301V41.4222H47.3401V33.5322Z" fill="#ffffff"/>
<path d="M55.23 21.6971H43.395V13.8071C43.395 10.4539 40.8307 7.88965 37.4775 7.88965H25.6425C22.2892 7.88965 19.725 10.4539 19.725 13.8071V21.6971H7.88998C6.70648 21.6971 5.91748 22.4861 5.91748 23.6696V24.0641L9.66523 47.9314C9.86248 49.9039 11.6377 51.2846 13.6102 51.2846H29.5875V47.3396H13.6102L10.257 25.6421H55.23V21.6971ZM23.67 13.8071C23.67 12.6236 24.459 11.8346 25.6425 11.8346H37.4775C38.661 11.8346 39.45 12.6236 39.45 13.8071V21.6971H23.67V13.8071Z" fill="#ffffff"/>
</svg>
