<svg width="64" height="64" viewBox="0 0 64 64" fill="#ffffff" xmlns="http://www.w3.org/2000/svg">
<path d="M14.0597 5.35695C14.0304 5.37499 14.0011 5.40429 13.9741 5.4336C14.1567 5.24196 14.416 5.0413 14.5783 4.92632C19.5227 1.71576 25.2358 0 31.5713 0C37.4941 0 43.0427 1.6391 47.7774 4.48442C48.1224 4.68508 49.0625 5.32764 49.5405 5.91158C44.9682 0.870279 31.5329 11.6901 31.5329 11.6901C26.8952 8.10532 22.6205 5.66132 19.4392 4.78879C16.7743 4.06055 14.9345 4.6738 14.062 5.35469L14.0597 5.35695ZM54.7148 10.1209C54.5795 9.96762 54.4285 9.82333 54.2842 9.66099C53.1343 8.39616 51.7162 8.08953 50.4311 8.16619C49.2609 8.54046 43.8747 10.4749 37.2439 16.7427C37.2439 16.7427 44.7089 24.0071 49.2902 31.436C53.8626 38.8627 56.5929 44.6999 54.9155 52.7984C60.0131 47.1912 63.12 39.7442 63.12 31.56C63.12 23.2901 59.9388 15.7462 54.7148 10.1209ZM43.3088 34.6082C41.2864 32.3266 38.2675 29.0777 34.2903 25.1096C33.4178 24.2461 32.4979 23.3465 31.5307 22.4063C31.5307 22.4063 30.0742 23.8628 28.1849 25.7792V25.7702C25.7612 28.2232 22.616 31.4157 20.8732 33.2848C17.7686 36.6013 8.86512 47.0086 8.36685 52.8458C8.36685 52.8458 6.38279 48.217 10.7342 37.5392C13.5705 30.5522 22.1493 20.0773 25.7318 16.657C25.7318 16.657 22.4536 13.0632 18.3525 10.5719L18.3232 10.5628C18.3232 10.5628 18.2759 10.5245 18.2082 10.4862C16.2332 9.30702 14.0688 8.39616 11.9968 8.27216C9.87969 8.42547 8.5382 9.97889 8.5382 9.97889C3.23762 15.6244 0 23.2134 0 31.5713C0 49.0039 14.1274 63.1313 31.569 63.1313C40.8174 63.1313 49.1369 59.1451 54.9155 52.8007C54.9155 52.7916 54.2549 48.6319 50.0095 42.6617C49.0039 41.2616 45.3605 36.9012 43.311 34.6105L43.3088 34.6082Z" fill="#ffffff"/>
</svg>
