<svg width="64" height="64" viewBox="0 0 64 64" fill="#ffffff" xmlns="http://www.w3.org/2000/svg">
<path d="M18.41 13.1499H44.71V18.4099H49.97V7.88988C49.97 4.99688 47.603 2.65618 44.71 2.65618L18.41 2.62988C15.517 2.62988 13.15 4.99688 13.15 7.88988V18.4099H18.41V13.1499ZM40.5283 43.6316L52.6 31.5599L40.5283 19.4882L36.82 23.2228L45.1571 31.5599L36.82 39.897L40.5283 43.6316ZM26.3 39.897L17.9629 31.5599L26.3 23.2228L22.5917 19.4882L10.52 31.5599L22.5917 43.6316L26.3 39.897ZM44.71 49.9699H18.41V44.7099H13.15V55.2299C13.15 58.1229 15.517 60.4899 18.41 60.4899H44.71C47.603 60.4899 49.97 58.1229 49.97 55.2299V44.7099H44.71V49.9699Z" fill="#ffffff"/>
</svg>
