<svg width="64" height="64" viewBox="0 0 64 64" fill="#ffffff" xmlns="http://www.w3.org/2000/svg">
<path d="M13.1499 13.1495C13.1499 14.596 14.3334 15.7795 15.7799 15.7795H47.3399C48.7864 15.7795 49.9699 14.596 49.9699 13.1495C49.9699 11.703 48.7864 10.5195 47.3399 10.5195H15.7799C14.3334 10.5195 13.1499 11.703 13.1499 13.1495ZM19.4882 36.8195H23.6699V49.9695C23.6699 51.416 24.8534 52.5995 26.2999 52.5995H36.8199C38.2664 52.5995 39.4499 51.416 39.4499 49.9695V36.8195H43.6316C45.9723 36.8195 47.1558 33.9791 45.4989 32.3222L33.4272 20.2505C32.4015 19.2248 30.7446 19.2248 29.7189 20.2505L17.6472 32.3222C15.9903 33.9791 17.1475 36.8195 19.4882 36.8195Z" fill="#ffffff"/>
</svg>
